<svg xmlns:dc="http://purl.org/dc/elements/1.1/" xmlns:cc="http://creativecommons.org/ns#" xmlns:rdf="http://www.w3.org/1999/02/22-rdf-syntax-ns#" xmlns:svg="http://www.w3.org/2000/svg" xmlns="http://www.w3.org/2000/svg" xmlns:sodipodi="http://sodipodi.sourceforge.net/DTD/sodipodi-0.dtd" xmlns:inkscape="http://www.inkscape.org/namespaces/inkscape" version="1.1" id="svg2" xml:space="preserve" width="189.45332" height="216.25333" viewBox="0 0 189.45332 216.25333" sodipodi:docname="KTU logo.svg" inkscape:version="0.92.3 (2405546, 2018-03-11)" transform="matrix(1, 0, 0, 1, 0, 0)"><metadata id="metadata8" fill="#ff0000"><rdf:RDF fill="#ff0000"><cc:Work rdf:about="" fill="#ff0000"><dc:format fill="#ff0000">image/svg+xml</dc:format><dc:type rdf:resource="http://purl.org/dc/dcmitype/StillImage" fill="#ff0000"/><dc:title fill="#ff0000"/></cc:Work></rdf:RDF></metadata><defs id="defs6" fill="#ff0000"/><sodipodi:namedview pagecolor="#ff0000" bordercolor="#ff0000" borderopacity="1" objecttolerance="10" gridtolerance="10" guidetolerance="10" inkscape:pageopacity="0" inkscape:pageshadow="2" inkscape:window-width="1661" inkscape:window-height="852" id="namedview4" showgrid="false" inkscape:zoom="1.0913127" inkscape:cx="94.726662" inkscape:cy="108.12666" inkscape:window-x="0" inkscape:window-y="27" inkscape:window-maximized="0" inkscape:current-layer="g10" fill="#ff0000"/><g id="g10" inkscape:groupmode="layer" inkscape:label="ink_ext_XXXXXX" transform="matrix(1.3333333,0,0,-1.3333333,0,216.25333)"><g id="g12" transform="scale(0.1)"><path d="m 525.715,256.57 c 0,19.739 -12.473,37.43 -42.231,37.43 -24.949,0 -40.144,-16.418 -45.757,-37.43 l 22.253,-7.5 c 3.125,13.321 11.028,20.578 21.016,20.578 11.231,0 16.008,-5.386 16.008,-14.558 0,-26.629 -56.789,-42.629 -58.441,-86.539 l 0.402,-12.481 h 86.953 v 23.512 h -55.313 c 7.266,27.867 55.11,30.59 55.11,76.988 z m -101.391,0 c 0,19.739 -12.469,37.43 -42.222,37.43 -24.961,0 -40.161,-16.418 -45.774,-37.43 l 22.266,-7.5 c 3.125,13.321 11.023,20.578 21.015,20.578 11.231,0 16.004,-5.386 16.004,-14.558 0,-26.629 -56.797,-42.629 -58.445,-86.539 l 0.41,-12.481 h 86.953 v 23.512 h -55.32 c 7.273,27.867 55.113,30.59 55.113,76.988 z m -146.719,13.078 c 11.235,0 16.45,-5.179 16.45,-17.25 v -11.457 c -0.442,-7.902 -9.582,-10.589 -17.285,-10.589 -10.391,0 -15.801,4.359 -15.801,19.328 0,13.949 5.183,19.968 16.636,19.968 z m -6.25,-62 c 9.375,0 16.848,2.321 22.7,6.891 v -15.828 c 0,-13.723 -6.25,-20.582 -19.575,-20.582 -10.82,0 -17.273,4.371 -21.851,16.012 l -18.496,-10.602 c 6.426,-19.129 20.586,-29.348 42,-29.348 28.515,0 45.996,17.891 45.996,46.399 v 50.359 c 0,23.91 -14.988,43.25 -44.109,43.25 -29.329,0 -45.571,-16.617 -45.571,-45.558 0,-28.082 15.196,-40.993 38.906,-40.993 z M 183.34,156.07 h 29.949 v 136.879 h -23.726 c -2.493,-20.777 -6.426,-24.738 -22.051,-24.738 h -11.438 v -20.383 h 27.266 z m 787.363,352.239 c 39.937,0 72.867,13.32 98.107,39.941 l 3.5,-33.648 h 69.38 v 356 h -77.78 V 604.309 c -13.31,-18.219 -37.15,-33.649 -67.98,-33.649 -39.946,0 -59.582,24.52 -59.582,71.485 V 870.602 H 857.883 V 642.855 c 0,-82.683 40.625,-134.546 112.82,-134.546 z M 644.23,619.73 c 0,-71.48 27.313,-110.742 94.598,-110.742 25.93,0 46.934,6.332 65.156,16.141 l -6.992,48.351 c -9.836,-3.5 -19.637,-5.609 -30.137,-5.609 -26.628,0 -43.449,14.707 -43.449,48.359 v 181.5 h 80.578 v 58.848 h -80.578 v 81.289 H 668.75 l -20.32,-79.179 -46.965,-3.508 v -49.754 l 42.765,-11.203 z m -287.921,-2.109 45.539,49.043 93.203,-152.062 h 88.301 l -129.653,201.82 118.442,154.18 H 487.344 L 356.309,696.801 V 972.906 H 277.813 V 514.602 h 78.496 z M 1342.83,78.0586 H 78.0664 V 1543.82 H 1342.83 Z M 0,1621.88 V 0 H 1420.89 V 1621.88 H 0" style="fill:#f2f2f2;fill-opacity:1;fill-rule:nonzero;stroke:none" id="path14" inkscape:connector-curvature="0"/></g></g></svg>