<svg id="Layer_1" data-name="Layer 1" xmlns="http://www.w3.org/2000/svg" viewBox="0 0 82.02 55.22"><defs><style>.cls-1{fill:#214359;}.cls-2{fill:#2e4e63;}</style></defs><path class="cls-1" d="M41.09.05C54,.05,66.81.09,79.67,0,81.58,0,82,.53,82,2.39Q81.89,16.18,82,30c0,1.76-.39,2.31-2.23,2.29-9.27-.1-18.53-.08-27.8,0-1.54,0-2.08-.37-2-2,.12-3.84,0-7.67.06-11.51a13.06,13.06,0,0,1,.41-2.83c.34-1.41,1.44-1.78,2.75-1.79s2.58.3,2.95,1.85a13.46,13.46,0,0,1,.26,5.22c-.3,1.92-1,3.16-3.18,3-.62,0-1.35-.13-1.28.89,0,.84-.2,1.67,1,2.06a5.12,5.12,0,0,0,6.44-4.37,35.79,35.79,0,0,0,0-7.17c-.38-3.73-4.35-5.65-7.77-4-.65.32-1.47,1.64-1.93-.28-.06-.22-1.49-.27-2.23-.13-.9.16-.51,1-.52,1.6,0,5.75-.08,11.5,0,17.25,0,1.68-.45,2.15-2.13,2.14q-21.33-.1-42.65,0C.55,32.24.06,31.8.07,30.1q.12-14,0-28C.05.29.69,0,2.27,0,15.21.07,28.15.05,41.09.05Zm-3.91,11H36.07c-3,.16-5,2-5.13,4.61s1.5,4.26,4.69,4.66c.79.1,1.59.22,2.38.29,1.14.11,2.38.12,2.31,1.74-.06,1.45-1.21,1.8-2.34,1.92A7.08,7.08,0,0,1,32.76,23c-1.28-1-1.64.45-2.24,1-.82.74.09,1.12.55,1.43a9.38,9.38,0,0,0,9.74,1,4.2,4.2,0,0,0,2.56-4.89,4,4,0,0,0-4-3.74c-1.11-.1-2.22-.27-3.34-.34s-1.89-.54-1.93-1.69S34.92,14.14,36,14a6.15,6.15,0,0,1,4.16.77c1.41.87,1.94-.34,2.42-1.11.7-1.13-.58-1.23-1.16-1.59A6.92,6.92,0,0,0,37.18,11.09ZM63.42,13.3c1,1,1.78,1.65,3.57.9,3.22-1.35,4.91.12,4.92,3.68,0,1,0,2.08,0,3.12-.06,2.94-1.11,3.86-4,3.5-1.34-.17-2.62-.6-2.57-2.26s1.36-1.76,2.59-1.88c.39,0,.8,0,1.2,0,.63,0,.77-.48.73-1s.22-1.09-.52-1.42c-2-.88-5.41.44-6.38,2.56a4.47,4.47,0,0,0,.87,5.3A6.29,6.29,0,0,0,70.24,27c.64-.23,1.11-1.4,2.14.06.76,1.1,2.46,0,2.47-1.62,0-2.72,0-5.43,0-8.15,0-3.57-.74-4.93-3.1-5.8A7.49,7.49,0,0,0,63.42,13.3ZM6.75,15.65c0,3.28.06,6.55,0,9.82,0,1.26.33,1.65,1.6,1.62,3.75-.08,7.51-.06,11.26,0,1.15,0,1.51-.38,1.5-1.52S20.79,24,19.61,24c-2.47.07-5-.12-7.42.06-1.9.14-2.24-.57-2.21-2.3.12-4.86,0-9.74,0-14.61,0-1.18.49-2.56-1.7-2.54C6,4.64,6.82,6.22,6.79,7.27,6.7,10.06,6.75,12.86,6.75,15.65ZM24.1,18.86c0,2.15.07,4.31,0,6.46-.07,1.35.35,1.79,1.73,1.79s1.51-.67,1.5-1.77c0-4.16-.07-8.31,0-12.46,0-1.35-.37-1.76-1.74-1.76s-1.53.64-1.49,1.75C24.14,14.86,24.1,16.86,24.1,18.86ZM25.72,4.71C24.5,4.5,24.07,5,24.06,6.24s.4,1.61,1.62,1.6,1.69-.23,1.65-1.55S27,4.48,25.72,4.71Z"/><path class="cls-2" d="M16.93,45.5c0,1.2,0,2.4,0,3.59,0,1-.42,1.21-1.3,1.22s-1.28-.31-1.26-1.24c0-1.76,0-3.52,0-5.27,0-1.6-.34-3-2.22-3s-2.3,1.32-2.28,2.92,0,3.35,0,5c0,1-.18,1.66-1.43,1.62s-1.24-.68-1.22-1.56c0-1.76,0-3.52,0-5.27,0-1.53-.52-2.73-2.28-2.73-.9,0-1-.4-1.08-1.15s.41-1.68,1.14-1.44c2.94,1,5.83,0,8.72.1,1.8.06,3.1,1.56,3.14,3.64,0,1.2,0,2.39,0,3.59Z"/><path class="cls-2" d="M47.75,46.33c.85-2.5,1.62-4.51,2.2-6.56.39-1.37,1.24-1.91,2.45-1.49,1.48.51.25,1.44,0,2.08-1.35,4-2.8,7.94-4.19,11.92-.5,1.45-1.28,2.57-2.92,2.8-.59.08-1.38.47-1.53-.51-.09-.61-.42-1.39.58-1.81,2.3-.95,2.29-2.71,1.53-4.7-1-2.67-2.08-5.34-3-8-.16-.49-1.18-1.37.05-1.72.8-.22,1.9-.49,2.33.89C46,41.46,46.83,43.69,47.75,46.33Z"/><path class="cls-2" d="M81.52,45.72v2.15c0,2.46,0,2.42-2.52,2-.45-.07-1,.37-1.47.51-2.8.77-5.54-1-5.55-3.59a3.88,3.88,0,0,1,5.07-3.59c.63.17.69.5.7,1s-.09,1-.88,1.06c-1,.06-2.35-.11-2.36,1.33,0,1.09,1,1.46,2.06,1.51,1.6.07,2.4-.62,2.46-2.19,0-.8,0-1.6,0-2.39,0-2.9-1.17-3.71-3.91-2.49-1.24.55-1.69-.24-2.12-.81-.66-.9.39-1.25.92-1.55a4.86,4.86,0,0,1,7.55,4.18C81.53,43.81,81.52,44.76,81.52,45.72Z"/><path class="cls-2" d="M29.39,44.44c0,4.07-1.93,6.21-5.36,6s-5-3-4.51-7.52c.4-3.38,2.73-5.31,5.8-4.8C28.09,38.57,29.41,40.62,29.39,44.44ZM22,44.16c0,2,.22,3.79,2.52,3.68s2.33-2,2.32-3.73-.23-3.35-2.42-3.36C22,40.74,22.11,42.63,22,44.16Z"/><path class="cls-2" d="M34.38,41.74c0,2.31,0,4.62,0,6.93,0,1-.12,1.68-1.4,1.65s-1.26-.62-1.25-1.53q0-6.93,0-13.87c0-.91.12-1.5,1.26-1.53s1.41.65,1.39,1.66C34.35,37.28,34.38,39.51,34.38,41.74Z"/><path class="cls-2" d="M57.06,41.91c0,2.31,0,4.62,0,6.93,0,1-.22,1.48-1.31,1.48s-1.35-.48-1.35-1.46c0-4.7,0-9.41,0-14.11,0-1.07.46-1.37,1.45-1.35s1.22.45,1.21,1.34C57,37.13,57.06,39.52,57.06,41.91Z"/><path class="cls-1" d="M66.62,41.15c0-2.08,0-4.16,0-6.24,0-.93.14-1.48,1.28-1.49s1.23.64,1.22,1.52c0,3.52,0,7,0,10.56,0,1.08-.29,2.28,1.35,2.59.77.14.47.92.46,1.42,0,.81-.68.76-1.24.74-1.84-.06-3.06-.81-3-2.87s0-4.15,0-6.23Z"/><path class="cls-2" d="M64.72,50.07c-1.88.62-3.13.17-4-1.7-.55-1.17-1-2.55-2.22-3.28-.45-.26-.32-.66-.36-1-.33-2.89,3-6,5.91-5.64,0,.15,0,.33,0,.44-1,1.49-3.28,2.61-3.23,4.23s1.77,3.09,2.73,4.65A5.74,5.74,0,0,1,64.72,50.07Z"/><path class="cls-2" d="M41.42,38.4c.13.47-.22.72-.46,1-3.06,3.71-3.06,3.71-.49,7.71l1.9,2.94c-2,.48-3.36.32-4.23-1.63A7.76,7.76,0,0,0,36,45.1c-.49-.37-.36-.83-.39-1.27C35.39,40.94,38.49,38.06,41.42,38.4Z"/><path class="cls-2" d="M2.72,44.27c0,1.52,0,3,0,4.54,0,.93-.16,1.52-1.29,1.51S.06,49.91.08,48.89c0-3.1,0-6.21,0-9.31,0-1.06.41-1.39,1.41-1.38s1.27.4,1.25,1.3C2.7,41.09,2.72,42.68,2.72,44.27Z"/><path class="cls-2" d="M6.42,51.91c1.67,0,3.35,0,5,0,.81,0,1.41.09,1.36,1.13,0,.82-.41,1.11-1.2,1.11-3.51,0-7,0-10.52,0C.22,54.14,0,53.72,0,53s.39-1.06,1.15-1.05C2.91,51.93,4.66,51.91,6.42,51.91Z"/></svg>