<?xml version="1.0" encoding="utf-8"?>
<!-- Generator: Adobe Illustrator 26.2.1, SVG Export Plug-In . SVG Version: 6.00 Build 0)  -->
<svg version="1.1" id="Layer_1" xmlns="http://www.w3.org/2000/svg" xmlns:xlink="http://www.w3.org/1999/xlink" x="0px" y="0px"
	 viewBox="0 0 90 90" style="enable-background:new 0 0 90 90;" xml:space="preserve">
<style type="text/css">
	.st0{fill:#0054A6;}
</style>
<path class="st0" d="M57.4,29.5l-8.7-8.5L24.9,45l23.8,23.9l8.7-8.5L42.3,45L57.4,29.5L57.4,29.5z M36.6,7.5l11.1,10.6l9.8-10.2
	l10.9,10.6L78.9,7.7L90,18.5l-10.9,11l-8.9-8.9L46.4,45l23.8,24.4l8.9-8.9l10.9,11L78.9,82.3L68.3,71.5L57.4,82.1l-9.8-10.2
	L36.6,82.5L0,45L36.6,7.5L36.6,7.5z M27.7,20.8L4,45.2l24,23.9l8.1-8.1L20.9,45.8l16-16.3L27.7,20.8L27.7,20.8z"/>
</svg>
